<?xml version="1.0" standalone="no"?>
<!DOCTYPE svg PUBLIC "-//W3C//DTD SVG 20010904//EN"
 "http://www.w3.org/TR/2001/REC-SVG-20010904/DTD/svg10.dtd">
<svg version="1.0" xmlns="http://www.w3.org/2000/svg"
 width="483.000000pt" height="483.000000pt" viewBox="0 0 483.000000 483.000000"
 preserveAspectRatio="xMidYMid meet">
<metadata>
Created by potrace 1.14, written by Peter Selinger 2001-2017
</metadata>
<g transform="translate(0.000000,483.000000) scale(0.100000,-0.100000)"
fill="#000000" stroke="none">
<path d="M82 3383 c-18 -9 -43 -30 -55 -47 l-22 -31 -3 -705 -2 -705 377 1
c208 0 404 4 436 8 178 23 314 111 373 240 49 107 58 240 24 350 -18 58 -31
79 -78 126 -32 31 -72 63 -90 71 -30 13 -43 29 -23 29 23 0 110 94 132 142 20
45 24 69 24 158 0 92 -3 112 -26 160 -52 112 -122 166 -254 200 -71 18 -110
20 -429 20 -303 0 -356 -3 -384 -17z m703 -269 c52 -25 79 -72 77 -136 -1 -63
-26 -105 -77 -132 -36 -19 -60 -21 -262 -24 l-223 -4 0 160 0 160 223 -2 c198
-2 227 -5 262 -22z m30 -584 c65 -33 89 -79 89 -170 0 -84 -25 -128 -92 -161
-44 -22 -60 -24 -279 -27 l-233 -4 0 197 0 196 233 -3 c224 -3 234 -4 282 -28z"/>
<path d="M3189 3377 c-18 -12 -44 -37 -56 -56 l-22 -33 -1 -506 c0 -279 -3
-523 -6 -542 -9 -53 -34 -88 -76 -105 -55 -22 -140 -19 -189 6 -58 29 -72 68
-72 207 0 95 -3 112 -16 113 -21 1 -250 1 -275 0 -18 -1 -19 -8 -13 -148 4
-82 13 -170 21 -196 22 -72 79 -143 151 -187 133 -81 444 -91 594 -18 98 47
170 142 187 245 7 41 12 1210 6 1231 -3 8 -32 12 -102 12 -84 0 -101 -3 -131
-23z"/>
<path d="M3590 3392 c-38 -18 -70 -46 -84 -77 -14 -29 -16 -114 -16 -724 0
-546 3 -691 13 -692 50 -4 281 -3 288 1 4 3 9 130 9 282 1 266 2 278 22 304
25 32 77 55 108 49 45 -9 101 -56 156 -133 30 -42 123 -171 205 -287 82 -115
156 -212 164 -215 17 -6 354 -5 360 2 4 4 -99 149 -457 636 -98 134 -178 248
-178 253 0 6 132 143 293 305 160 163 294 297 296 300 2 2 -84 4 -191 4 l-195
0 -80 -82 c-44 -46 -93 -97 -109 -114 -16 -17 -95 -100 -176 -185 -80 -85
-162 -171 -182 -192 l-36 -38 0 305 0 306 -97 -1 c-54 0 -105 -3 -113 -7z"/>
<path d="M1850 3381 c0 -5 -22 -56 -49 -113 -52 -109 -81 -173 -166 -358 -29
-63 -71 -153 -93 -200 -22 -47 -62 -134 -90 -195 -28 -60 -71 -155 -97 -210
-26 -55 -65 -139 -86 -187 -21 -47 -52 -114 -69 -148 -17 -34 -29 -64 -27 -67
3 -2 159 62 347 142 l343 147 324 -324 c401 -399 371 -370 383 -363 6 3 7 -1
4 -9 -4 -10 -1 -16 9 -16 9 0 19 -9 22 -21 4 -11 9 -19 11 -16 3 2 -34 103
-81 223 -135 346 -326 838 -555 1432 -98 253 -130 322 -130 283z m117 -909
c14 -29 23 -55 20 -58 -6 -6 -249 -6 -255 0 -1 2 27 64 64 138 l67 135 39 -81
c22 -45 51 -105 65 -134z"/>
<path d="M2578 1822 c-13 -2 -5 -35 42 -185 l56 -182 1077 -2 1077 -1 0 184
c0 101 -3 184 -7 185 -24 2 -2232 3 -2245 1z m457 -102 c1 -39 6 -74 10 -78
10 -10 237 -10 258 0 9 5 17 13 17 17 0 14 -42 21 -62 10 -22 -12 -23 0 -4 26
13 18 17 19 63 6 26 -8 58 -15 71 -15 14 -1 22 -7 22 -18 0 -14 -8 -18 -35
-18 -19 0 -35 -4 -35 -8 0 -5 62 -8 138 -8 121 1 141 3 157 20 17 17 19 17 31
1 7 -9 10 -24 6 -33 -5 -15 -4 -15 12 -3 12 11 49 14 141 14 110 1 123 3 115
17 -5 9 -3 22 6 34 13 18 14 18 22 -5 10 -26 6 -46 -14 -69 -10 -12 -37 -15
-131 -14 -120 2 -153 -5 -153 -31 0 -8 -4 -15 -10 -15 -5 0 -10 19 -10 43 -1
38 -2 40 -15 23 -13 -17 -28 -19 -142 -18 -140 1 -170 1 -346 0 -66 -1 -122 3
-128 9 -13 13 -19 153 -7 176 15 29 20 14 23 -63z m1234 62 c6 -12 5 -25 -5
-42 l-13 -25 -1 23 c0 26 -15 25 -81 -9 -32 -16 -35 -21 -31 -51 2 -18 8 -38
13 -43 8 -11 7 -29 -6 -58 -10 -24 -57 -47 -94 -47 -56 0 -85 72 -51 128 8 13
9 9 4 -19 -5 -31 -2 -39 17 -53 29 -20 69 -21 95 -1 19 14 19 14 -1 16 -11 1
-23 1 -27 0 -12 -2 -10 8 9 40 13 21 14 32 6 40 -15 15 1 50 30 69 22 14 106
49 119 50 4 0 12 -8 17 -18z m469 -5 c6 -18 0 -25 -30 -31 -18 -3 -42 -16 -55
-28 l-23 -22 11 32 c6 18 22 38 36 45 26 14 56 16 61 4z m-32 -107 c-1 -33 -7
-65 -14 -72 -13 -13 -13 -14 -17 57 -2 47 7 75 25 75 5 0 7 -27 6 -60z m-1722
-16 c-11 -59 -77 -114 -137 -114 -35 0 -75 34 -72 62 1 13 3 30 4 38 1 8 13
29 27 45 l25 30 -17 -32 c-18 -32 -18 -34 2 -59 24 -33 54 -39 99 -20 29 13
35 20 35 46 0 17 5 41 11 53 l12 21 8 -21 c4 -12 6 -34 3 -49z m1215 28 c-10
-17 -10 -23 0 -36 12 -14 45 -16 237 -16 123 0 224 -3 224 -7 -1 -27 -23 -30
-243 -29 -191 1 -229 3 -237 16 -15 23 -12 62 7 82 21 23 28 16 12 -10z
m-1304 4 c10 -10 11 -16 2 -25 -25 -25 -59 -2 -37 24 15 18 18 18 35 1z m320
-126 c4 -6 13 -5 25 2 14 9 22 9 35 -2 14 -12 14 -15 2 -28 -11 -10 -20 -11
-33 -4 -12 7 -23 6 -36 -2 -23 -14 -44 10 -26 31 13 15 25 17 33 3z m600 0 c4
-6 13 -5 26 3 16 10 21 9 29 -3 14 -22 -14 -48 -34 -31 -10 8 -16 9 -21 1 -10
-15 -35 -12 -42 6 -9 23 29 45 42 24z m580 0 c4 -7 12 -7 25 0 19 10 50 4 50
-10 0 -17 -31 -33 -42 -22 -8 8 -16 7 -29 -1 -23 -14 -45 3 -36 27 7 18 23 21
32 6z m-762 -17 c-4 -11 -3 -14 5 -9 8 5 12 0 12 -12 0 -20 -25 -38 -34 -24
-7 11 5 62 15 62 5 0 5 -7 2 -17z m-384 -37 c9 -10 8 -16 -4 -26 -19 -15 -47
3 -38 26 7 18 27 18 42 0z m599 -7 c4 -19 -19 -31 -38 -19 -18 11 -4 42 17 38
10 -2 19 -10 21 -19z m588 10 c3 -6 -1 -18 -9 -27 -13 -13 -19 -13 -32 -2 -12
10 -13 16 -4 26 14 17 35 18 45 3z"/>
<path d="M0 1728 c0 -4 513 -8 1140 -8 788 0 1140 3 1140 10 0 8 -350 10
-1140 9 -627 -2 -1140 -6 -1140 -11z"/>
<path d="M279 1690 c-6 -79 0 -185 10 -188 6 -2 11 7 11 20 l0 23 18 -26 c9
-14 23 -24 29 -22 9 3 8 11 -3 29 -16 23 -15 37 1 77 5 12 3 17 -8 17 -8 0
-18 -10 -23 -22 -6 -18 -8 -10 -11 32 -4 50 -22 95 -24 60z"/>
<path d="M503 1688 c-6 -7 -10 -20 -10 -28 0 -8 -3 -25 -7 -37 -4 -13 -3 -23
1 -23 5 0 8 -22 7 -50 -2 -38 1 -50 12 -50 10 0 14 13 14 49 0 30 5 52 13 55
10 5 10 7 0 12 -16 7 -17 51 -1 56 6 2 8 10 4 16 -9 15 -21 15 -33 0z"/>
<path d="M887 1693 c-3 -5 -4 -24 -3 -44 2 -31 0 -36 -16 -31 -12 3 -21 -3
-27 -19 -5 -13 -7 -27 -4 -31 2 -5 -1 -8 -7 -8 -7 0 -10 12 -8 28 3 25 0 27
-32 27 l-35 0 -3 -51 c-3 -46 -5 -51 -22 -47 -24 6 -23 1 -5 53 8 23 15 44 15
47 0 2 -16 3 -35 1 -19 -1 -34 -7 -32 -13 2 -5 11 -9 20 -9 13 1 13 -3 -1 -43
-19 -51 -16 -56 -44 65 -14 59 -29 68 -40 25 -32 -121 -35 -142 -22 -147 7 -3
16 4 19 15 8 24 32 25 39 1 5 -14 15 -17 49 -16 23 1 47 3 52 4 6 1 12 1 15 0
3 -1 15 -3 28 -4 25 -3 48 26 36 46 -4 7 -3 8 4 4 7 -4 12 -15 12 -26 0 -21
20 -31 49 -23 19 5 21 12 21 99 0 82 -9 120 -23 97z m-255 -107 c3 -14 0 -27
-7 -29 -7 -3 -10 5 -7 24 5 35 8 36 14 5z m163 -44 c-12 -48 -27 8 -16 58 1 3
6 -3 12 -13 6 -10 8 -30 4 -45z m90 11 c-1 -35 -25 -43 -25 -10 0 14 3 33 6
42 9 23 21 2 19 -32z"/>
<path d="M1939 1698 c-1 -2 -2 -38 -4 -81 -1 -42 -5 -80 -9 -84 -3 -3 -6 -1
-6 6 0 7 -7 19 -15 27 -8 9 -15 20 -15 26 0 5 7 8 15 4 9 -3 15 0 15 9 0 9
-10 15 -25 15 -22 0 -30 -9 -26 -32 0 -5 -3 -8 -9 -8 -5 0 -10 8 -10 18 0 14
-8 19 -30 20 -35 1 -42 -8 -42 -53 0 -58 10 -76 40 -71 15 2 30 5 33 5 3 1 4
17 3 36 -3 39 5 44 29 17 21 -23 22 -36 1 -28 -11 4 -14 1 -12 -11 4 -23 23
-27 42 -8 9 9 16 12 16 7 0 -6 7 -13 16 -16 11 -4 15 0 14 17 -1 12 -2 37 -1
55 2 50 21 28 21 -24 0 -33 4 -44 15 -44 13 0 15 11 13 58 -3 52 -5 57 -25 56
-23 -1 -28 13 -24 58 2 13 -16 36 -20 26z m-111 -142 c2 -20 -2 -36 -8 -36 -9
0 -12 11 -12 45 0 50 17 42 20 -9z"/>
<path d="M10 1590 c0 -61 4 -89 13 -93 20 -8 57 11 57 30 1 16 2 16 12 -2 16
-29 15 -28 48 -30 l30 -2 0 63 c0 63 0 64 -27 62 -37 -2 -52 -15 -48 -38 2
-11 -1 -23 -7 -26 -6 -4 -8 -2 -4 4 3 6 2 13 -3 16 -5 3 -7 23 -4 45 6 41 -4
54 -44 57 -22 1 -23 -2 -23 -86z m43 47 c3 -8 1 -20 -4 -28 -9 -15 -9 -15 -13
19 -3 24 9 30 17 9z m90 -103 c-3 -8 -9 -11 -14 -8 -11 6 -12 58 -2 68 10 9
23 -41 16 -60z m-87 11 c-1 -9 -6 -15 -12 -15 -9 0 -13 19 -6 33 6 12 20 -2
18 -18z"/>
<path d="M990 1604 c0 -68 -2 -76 -20 -81 -16 -4 -18 -8 -9 -19 14 -17 35 -18
45 -2 9 15 15 135 8 161 -12 41 -24 11 -24 -59z"/>
<path d="M1690 1586 c0 -83 2 -95 16 -89 10 4 14 14 11 30 -6 34 10 38 18 4 3
-16 13 -32 21 -35 18 -7 18 15 -1 60 -13 31 -12 38 5 80 18 41 18 45 3 42 -9
-2 -22 -19 -28 -38 l-13 -35 -3 34 c-2 19 -10 36 -16 39 -10 3 -13 -20 -13
-92z"/>
<path d="M1551 1656 c-6 -7 -11 -29 -10 -47 0 -19 -2 -45 -5 -59 -4 -14 -3
-31 2 -38 10 -15 103 -22 94 -7 -3 5 -5 21 -4 36 2 20 -2 26 -15 25 -13 -1
-17 5 -15 19 9 54 7 68 -15 76 -14 5 -25 3 -32 -5z m39 -31 c0 -8 -4 -15 -10
-15 -5 0 -10 7 -10 15 0 8 5 15 10 15 6 0 10 -7 10 -15z m-10 -91 c0 -8 -4
-14 -10 -14 -5 0 -10 9 -10 21 0 11 5 17 10 14 6 -3 10 -13 10 -21z"/>
<path d="M2162 1656 c1 -10 8 -17 13 -17 15 1 12 24 -3 29 -9 3 -13 -2 -10
-12z"/>
<path d="M189 1594 c-4 -67 0 -94 11 -94 6 0 10 20 10 44 0 25 5 48 10 51 10
6 13 -8 12 -62 -1 -19 4 -33 14 -37 13 -5 14 4 12 57 l-3 62 -32 2 c-28 1 -33
-2 -34 -23z"/>
<path d="M410 1601 c-16 -30 -12 -76 8 -94 23 -21 27 -21 46 -1 31 31 14 114
-24 114 -11 0 -24 -9 -30 -19z m40 -31 c4 -29 0 -50 -10 -50 -5 0 -10 19 -10
42 0 39 15 45 20 8z"/>
<path d="M1042 1608 c-7 -7 -12 -31 -12 -55 0 -42 16 -62 48 -57 6 1 16 2 20
3 7 1 9 75 4 111 -3 14 -45 13 -60 -2z m38 -47 c0 -28 -18 -55 -21 -32 -5 39
-1 61 11 61 6 0 10 -13 10 -29z"/>
<path d="M1121 1571 c0 -25 2 -54 5 -64 9 -30 24 -8 24 38 0 24 5 47 10 50 6
4 10 -13 10 -44 0 -38 4 -51 15 -51 10 0 14 10 13 33 0 17 0 41 1 52 1 18 3
18 11 3 6 -9 8 -33 5 -53 -3 -30 -1 -36 13 -33 13 2 17 13 17 43 0 65 -7 72
-68 72 l-55 0 -1 -46z"/>
<path d="M1260 1554 c0 -50 3 -62 14 -58 10 4 14 19 13 47 -1 23 3 43 8 44 6
2 10 -17 9 -42 0 -31 4 -45 13 -45 12 0 18 21 14 44 -1 6 1 21 4 35 9 37 23 8
18 -38 -3 -29 -1 -40 12 -45 14 -5 16 2 13 57 l-3 62 -57 1 -58 1 0 -63z"/>
<path d="M1398 1608 c-5 -15 -1 -99 6 -105 9 -10 42 -10 54 0 14 11 17 117 2
117 -10 0 -11 -5 -14 -55 -2 -46 -21 -40 -22 7 0 40 -17 63 -26 36z"/>
<path d="M2029 1616 c-1 -1 -3 -27 -4 -58 -3 -45 -1 -58 11 -58 10 0 14 12 14
44 0 25 5 48 10 51 6 4 10 -15 10 -49 0 -45 3 -54 15 -50 11 4 15 21 15 57 0
62 17 52 22 -13 4 -59 23 -53 24 7 1 69 -1 72 -62 71 -30 -1 -54 -2 -55 -2z"/>
<path d="M2163 1558 c1 -35 7 -63 12 -63 6 0 11 28 13 63 2 49 0 62 -12 62
-11 0 -14 -14 -13 -62z"/>
<path d="M2201 1560 c-1 -43 3 -60 12 -60 8 0 14 15 16 43 1 23 6 44 12 45 19
7 8 32 -15 32 -22 0 -23 -4 -25 -60z"/>
<path d="M3 1453 c8 -8 1477 -7 1485 1 3 3 -331 6 -743 6 -412 0 -745 -3 -742
-7z"/>
<path d="M1523 1454 c9 -9 1026 -11 1040 -2 7 4 -226 8 -517 8 -291 0 -526 -3
-523 -6z"/>
</g>
</svg>
